<svg xmlns="http://www.w3.org/2000/svg" viewBox="0 0 720 960" role="img" aria-label="Gym athlete portrait">
  <defs>
    <linearGradient id="bg" x1="0" x2="1" y1="0" y2="1">
      <stop offset="0" stop-color="#25324d"/>
      <stop offset="0.55" stop-color="#161b2d"/>
      <stop offset="1" stop-color="#0b1020"/>
    </linearGradient>
    <linearGradient id="body" x1="0" x2="1">
      <stop offset="0" stop-color="#35d39f"/>
      <stop offset="1" stop-color="#4e7dff"/>
    </linearGradient>
  </defs>
  <rect width="720" height="960" rx="58" fill="url(#bg)"/>
  <circle cx="550" cy="180" r="130" fill="#35d39f" opacity=".14"/>
  <circle cx="168" cy="760" r="190" fill="#4e7dff" opacity=".12"/>
  <path d="M133 224h454" stroke="#ffffff" stroke-width="5" opacity=".14"/>
  <text x="70" y="158" fill="#ffffff" font-family="Arial, sans-serif" font-size="78" font-weight="900" letter-spacing="10">ATHLETE</text>
  <text x="74" y="214" fill="#35d39f" font-family="Arial, sans-serif" font-size="28" font-weight="800" letter-spacing="9">GYM EVOLUTION</text>
  <circle cx="360" cy="300" r="82" fill="#f0b68a"/>
  <path d="M277 287c18-80 146-92 166 0-44-28-104-28-166 0z" fill="#121827"/>
  <path d="M226 618c12-122 62-198 134-198s122 76 134 198l32 218H194z" fill="url(#body)"/>
  <path d="M228 513c-72 36-119 102-139 210l76 24c16-72 48-125 96-157zM492 513c72 36 119 102 139 210l-76 24c-16-72-48-125-96-157z" fill="#f0b68a"/>
  <path d="M218 820h284" stroke="#ffffff" stroke-width="9" opacity=".18"/>
  <path d="M270 438l90 84 90-84" fill="none" stroke="#ffffff" stroke-width="12" opacity=".46"/>
  <text x="76" y="845" fill="#ffffff" font-family="Arial, sans-serif" font-size="34" font-weight="900">IRON GYM PATH</text>
  <text x="76" y="892" fill="#9fb0cf" font-family="Arial, sans-serif" font-size="24" font-weight="700">from rookie to strong form</text>
</svg>
