<svg xmlns="http://www.w3.org/2000/svg" viewBox="0 0 720 960" role="img" aria-label="Sportswoman portrait">
  <defs>
    <linearGradient id="bg" x1="0" x2="1" y1="0" y2="1">
      <stop offset="0" stop-color="#312348"/>
      <stop offset="0.58" stop-color="#171b2b"/>
      <stop offset="1" stop-color="#07131d"/>
    </linearGradient>
    <linearGradient id="top" x1="0" x2="1">
      <stop offset="0" stop-color="#ff6b8a"/>
      <stop offset="1" stop-color="#f8c75c"/>
    </linearGradient>
  </defs>
  <rect width="720" height="960" rx="58" fill="url(#bg)"/>
  <circle cx="160" cy="168" r="128" fill="#ff6b8a" opacity=".15"/>
  <circle cx="545" cy="740" r="190" fill="#f8c75c" opacity=".12"/>
  <text x="70" y="158" fill="#ffffff" font-family="Arial, sans-serif" font-size="76" font-weight="900" letter-spacing="7">POWER</text>
  <text x="74" y="214" fill="#ff8da3" font-family="Arial, sans-serif" font-size="28" font-weight="800" letter-spacing="9">ATHLETE MODE</text>
  <path d="M285 300c-22-105 166-121 150 8 28 36 16 91-75 91s-113-56-75-99z" fill="#202337"/>
  <circle cx="360" cy="315" r="78" fill="#e9a97f"/>
  <path d="M280 298c54-63 125-64 161 10-52-28-100-27-161-10z" fill="#202337"/>
  <path d="M218 635c15-134 70-215 142-215s127 81 142 215l28 206H190z" fill="url(#top)"/>
  <path d="M218 530c-73 38-122 109-145 211l73 32c18-73 53-129 104-166zM502 530c73 38 122 109 145 211l-73 32c-18-73-53-129-104-166z" fill="#e9a97f"/>
  <path d="M248 828h224" stroke="#ffffff" stroke-width="9" opacity=".18"/>
  <path d="M284 444c22 44 130 44 152 0" fill="none" stroke="#ffffff" stroke-width="12" opacity=".38"/>
  <text x="76" y="845" fill="#ffffff" font-family="Arial, sans-serif" font-size="34" font-weight="900">STRONG FORM</text>
  <text x="76" y="892" fill="#b8bdd0" font-family="Arial, sans-serif" font-size="24" font-weight="700">confidence, strength, rhythm</text>
</svg>
